# xmcd CD database file
#
# Track frame offsets:
#	150
#	20062
#	40255
#	55637
#	71225
#	87410
#	103822
#	117780
#	136952
#	148025
#	166995
#	185762
#	200650
#
# Disc length: 2843 seconds
#
# Revision: 2
# Processed by: cddbd v1.5PL3 Copyright (c) Steve Scherf et al.
# Submitted via: CDex 1.51
#
DISCID=c30b190d
DTITLE=Various Artist - Midnight Blues
DYEAR=1991
DGENRE=Blues
TTITLE0=Kate Ceberano and Wendy Matthews/You've Always Got The Blues
TTITLE1=Marc Hunter/Moonlight In Vermont
TTITLE2=Grace Knight/Sophisticated Lady
TTITLE3=Vince Jones/You Go To My Head
TTITLE4=Kate Ceberano/Sing To Me
TTITLE5=Marc Hunter/Night and Day
TTITLE6=Grace Knight/The Man I Love
TTITLE7=Vince Jones/I Get Along Without You Very Well
TTITLE8=Kate Ceberano and Wendy Matthews/The Way You Look Tonight
TTITLE9=Marc Hunter/Walk On By
TTITLE10=Tania Bowra/All True
TTITLE11=Anne Kirkpatrick/A Bottle Of Wine And Patsy Cline
TTITLE12=Kate Ceberano and Wendy Matthews/Cry Me A River
EXTD=YEAR: 1991
EXTT0=
EXTT1=
EXTT2=
EXTT3=
EXTT4=
EXTT5=
EXTT6=
EXTT7=
EXTT8=
EXTT9=
EXTT10=
EXTT11=
EXTT12=
PLAYORDER=
